<?xml version="1.0" standalone="no"?><svg xmlns="http://www.w3.org/2000/svg" viewBox="0 0 1440 320"><path fill="#273036" fill-opacity="1" d="M0,0L34.3,26.7C68.6,53,137,107,206,144C274.3,181,343,203,411,218.7C480,235,549,245,617,213.3C685.7,181,754,107,823,96C891.4,85,960,139,1029,138.7C1097.1,139,1166,85,1234,53.3C1302.9,21,1371,11,1406,5.3L1440,0L1440,0L1405.7,0C1371.4,0,1303,0,1234,0C1165.7,0,1097,0,1029,0C960,0,891,0,823,0C754.3,0,686,0,617,0C548.6,0,480,0,411,0C342.9,0,274,0,206,0C137.1,0,69,0,34,0L0,0Z"></path></svg>